<?xml version="1.0" encoding="utf-8"?>
<!-- Generator: Adobe Illustrator 25.2.1, SVG Export Plug-In . SVG Version: 6.00 Build 0)  -->
<svg version="1.1" id="Layer_1" xmlns="http://www.w3.org/2000/svg" xmlns:xlink="http://www.w3.org/1999/xlink" x="0px" y="0px"
	 viewBox="0 0 108.55 96" style="enable-background:new 0 0 108.55 96;" xml:space="preserve">
<style type="text/css">
	.st0{fill:darkGreen;}
</style>
<path class="st0" d="M105.66,40.87L81.78,23.48L81.62,6.57C81.61,5,81.1,3.55,80.26,2.42C79.15,0.93,77.47-0.02,75.6,0
	c-3.29,0.03-5.94,3.02-5.91,6.69l0.08,8.04l-6.48-4.72l-10-7.29L53.25,2.7l-9.8,7.63L2,42.56c-1.32,1.03-2,2.6-2,4.23
	c0,1.32,0.44,2.68,1.35,3.84c2.02,2.6,5.6,3.2,7.98,1.35l6.72-5.23v36.97c0,6.77,5.13,12.28,11.44,12.28h53.58
	c6.31,0,11.44-5.51,11.44-12.28V46.06l6.12,4.46c2.96,2.15,6.93,1.75,8.87-0.92C109.44,46.94,108.62,43.03,105.66,40.87z"/>
</svg>
