<svg width="26" height="26" viewBox="0 0 26 26" fill="none" xmlns="http://www.w3.org/2000/svg">
<circle cx="13" cy="13" r="12" fill="#EB9701"/>
<circle cx="12.5" cy="6.5" r="1.5" fill="black"/>
<path fill-rule="evenodd" clip-rule="evenodd" d="M12.8572 10H13C13.5523 10 14 10.4477 14 11V19H15C15.5523 19 16 19.4477 16 20C16 20.5523 15.5523 21 15 21H11C10.4477 21 10 20.5523 10 20C10 19.4477 10.4477 19 11 19H12V11.7143H11.2857C10.8124 11.7143 10.4286 11.3305 10.4286 10.8571C10.4286 10.3838 10.8124 10 11.2857 10H12H12.8572Z" fill="black"/>
</svg>
