<?xml version="1.0" encoding="UTF-8" standalone="no"?>
<svg
   xmlns:dc="http://purl.org/dc/elements/1.1/"
   xmlns:cc="http://creativecommons.org/ns#"
   xmlns:rdf="http://www.w3.org/1999/02/22-rdf-syntax-ns#"
   xmlns:svg="http://www.w3.org/2000/svg"
   xmlns="http://www.w3.org/2000/svg"
   xmlns:sodipodi="http://sodipodi.sourceforge.net/DTD/sodipodi-0.dtd"
   xmlns:inkscape="http://www.inkscape.org/namespaces/inkscape"
   version="1.1"
   id="svg2"
   xml:space="preserve"
   width="153.64"
   height="105.73333"
   viewBox="0 0 153.64 105.73333"
   sodipodi:docname="natura2000-hr.eps"><metadata
     id="metadata8"><rdf:RDF><cc:Work
         rdf:about=""><dc:format>image/svg+xml</dc:format><dc:type
           rdf:resource="http://purl.org/dc/dcmitype/StillImage" /></cc:Work></rdf:RDF></metadata><defs
     id="defs6" /><sodipodi:namedview
     pagecolor="#ffffff"
     bordercolor="#666666"
     borderopacity="1"
     objecttolerance="10"
     gridtolerance="10"
     guidetolerance="10"
     inkscape:pageopacity="0"
     inkscape:pageshadow="2"
     inkscape:window-width="640"
     inkscape:window-height="480"
     id="namedview4" /><g
     id="g10"
     inkscape:groupmode="layer"
     inkscape:label="ink_ext_XXXXXX"
     transform="matrix(1.3333333,0,0,-1.3333333,0,105.73333)"><g
       id="g12"
       transform="scale(0.1)"><path
         d="m 1041.07,112.488 c 4.02,0 7.65,-1.961 10.9,-5.879 3.24,-3.925 5.97,-10.3199 8.19,-19.2067 2.18,-8.8945 3.26,-19.2265 3.26,-31.0156 0,-11.875 -1.08,-22.1758 -3.24,-30.8867 -2.13,-8.7148 -4.93,-15.0312 -8.32,-18.97656 -3.38,-3.95703 -7.11,-5.925784 -11.22,-5.925784 -6.09,0 -11.11,4.390624 -15.03,13.140644 -4.97,10.8711 -7.45,24.9336 -7.45,42.1992 0,12.1992 1.09,22.6758 3.23,31.4258 2.15,8.7617 4.89,15.1487 8.26,19.1287 3.36,3.996 7.17,5.996 11.42,5.996 m 5.82,-58.9724 c 0,22.4297 -0.65,37.1602 -2.01,44.168 -0.93,5.1294 -2.3,7.6754 -4.05,7.6754 -2.08,0 -3.64,-3.66 -4.63,-10.9723 -1,-7.3281 -1.49,-21.457 -1.49,-42.3945 0,-17.5117 0.71,-29.9024 2.15,-37.168 0.87,-4.5117 2.16,-6.76561 3.78,-6.76561 1.09,0 2.09,1.03516 2.97,3.07421 0.89,2.0508 1.6,6.3945 2.14,13.0547 0.77,9.0156 1.14,18.7891 1.14,29.3281"
         style="fill:#254aa5;fill-opacity:1;fill-rule:nonzero;stroke:none"
         id="path14" /><path
         d="m 1129.93,112.059 c 4.02,0 7.63,-1.961 10.89,-5.887 3.26,-3.914 5.98,-10.3243 8.16,-19.2072 2.19,-8.8906 3.31,-19.2226 3.31,-31.0078 0,-11.8867 -1.09,-22.1797 -3.27,-30.8984 -2.14,-8.7109 -4.92,-15.0313 -8.32,-18.97266 -3.4,-3.94531 -7.13,-5.917971 -11.2,-5.917971 -6.1,0 -11.13,4.382811 -15.07,13.140631 -4.94,10.8633 -7.4,24.9219 -7.4,42.1914 0,12.1953 1.06,22.6758 3.2,31.4258 2.15,8.7656 4.91,15.1442 8.27,19.1372 3.36,3.996 7.18,5.996 11.43,5.996 m 5.82,-58.9731 c 0,22.4297 -0.67,37.1563 -2.01,44.1602 -0.97,5.1289 -2.31,7.6879 -4.06,7.6879 -2.06,0 -3.63,-3.672 -4.62,-10.9887 -1,-7.3242 -1.49,-21.457 -1.49,-42.3906 0,-17.5 0.69,-29.9063 2.11,-37.168 0.9,-4.50389 2.17,-6.75779 3.82,-6.75779 1.09,0 2.08,1.02343 2.95,3.06249 0.89,2.0625 1.62,6.4063 2.15,13.0703 0.78,9.0039 1.15,18.7774 1.15,29.3242"
         style="fill:#254aa5;fill-opacity:1;fill-rule:nonzero;stroke:none"
         id="path16" /><path
         d="m 951.816,112.5 c 3.985,0 7.618,-1.965 10.879,-5.879 3.243,-3.926 5.965,-10.3202 8.164,-19.2108 2.188,-8.8946 3.282,-19.2266 3.282,-31.0157 0,-11.875 -1.075,-22.1757 -3.243,-30.8867 -2.16,-8.7109 -4.921,-15.0312 -8.332,-18.97655 -3.394,-3.95312 -7.128,-5.925781 -11.179,-5.925781 -6.114,0 -11.133,4.394531 -15.078,13.144531 -4.942,10.8672 -7.422,24.9336 -7.422,42.1953 0,12.1992 1.074,22.668 3.222,31.4297 2.129,8.7578 4.903,15.145 8.274,19.129 3.347,3.996 7.156,5.996 11.433,5.996 m 5.801,-58.9766 c 0,22.4336 -0.683,37.1602 -2.012,44.1719 -0.964,5.1247 -2.292,7.6877 -4.042,7.6877 -2.11,0 -3.653,-3.672 -4.649,-10.9885 -0.996,-7.3242 -1.492,-21.457 -1.492,-42.3906 0,-17.5117 0.711,-29.9062 2.137,-37.168 0.898,-4.5156 2.168,-6.76949 3.828,-6.76949 1.062,0 2.051,1.03515 2.929,3.07419 0.879,2.0508 1.614,6.3985 2.168,13.0586 0.743,9.0156 1.133,18.7891 1.133,29.3242"
         style="fill:#254aa5;fill-opacity:1;fill-rule:nonzero;stroke:none"
         id="path18" /><path
         d="M 71.0781,701.355 V 194.387 H 641.191 c 3.672,-12.012 13.282,-22.621 28.926,-31.797 20.75,-12.168 45.879,-18.274 75.332,-18.274 29.473,0 54.578,6.106 75.344,18.274 0,0 60.184,23.765 78.758,25.094 18.574,1.332 56.894,10.48 76.777,-4.11 19.895,-14.582 43.882,-34.347 63.792,-34.347 19.89,0 103.43,-1.329 103.43,-1.329 v 46.489 68.883 438.085 H 71.0781"
         style="fill:#ffffff;fill-opacity:1;fill-rule:nonzero;stroke:none"
         id="path20" /><path
         d="M 71.0781,701.355 V 194.387 H 641.191 c 3.672,-12.012 13.282,-22.621 28.926,-31.797 20.75,-12.168 45.879,-18.274 75.332,-18.274 29.473,0 54.578,6.106 75.344,18.274 0,0 60.184,23.765 78.758,25.094 18.574,1.332 56.894,10.48 76.777,-4.11 19.895,-14.582 43.882,-34.347 63.792,-34.347 19.89,0 103.43,-1.329 103.43,-1.329 v 46.489 68.883 438.085 z"
         style="fill:none;stroke:#ffffff;stroke-width:8.7;stroke-linecap:butt;stroke-linejoin:round;stroke-miterlimit:10;stroke-dasharray:none;stroke-opacity:1"
         id="path22" /><path
         d="M 71,133.895 774.414,133.418 583.242,364.121 496.422,272.41 410.191,232.773 352.98,315.41 329.418,260 304.398,315.879 263.289,372.48 71,471.582 V 133.895"
         style="fill:#00a990;fill-opacity:1;fill-rule:nonzero;stroke:none"
         id="path24" /><path
         d="m 866.672,765.332 -30.188,-25.793 c 0,0 -6.23,-11.121 -8.613,-13.601 -2.832,-2.918 -9.746,-6.25 -17.832,-10.762 -10.391,-5.781 -21.894,-11.531 -30.195,-19.824 -11.778,-11.789 -17.891,-27.481 -21.531,-42.747 -5.286,-22.097 -12.317,-34.57 -35.676,-40.828 -9.961,-2.675 -37.91,-4.355 -51.446,-5.027 -1.269,-0.062 -64.043,-0.988 -71.289,-0.695 -3.066,0.117 -37.019,0.988 -42.543,2.129 -1.097,0.222 -16.851,11.164 -26.148,12.656 -4.961,0.801 -9.922,0.332 -13.512,-1.192 -1.687,-0.714 -4.703,-2.617 -7.469,-5.964 -4.218,-5.082 -5.191,-6.438 -9.21,-8.125 -1.317,-0.559 -15.993,-4.563 -16.668,-4.766 -2.024,-0.676 -2.301,-1.438 -2.301,-1.438 l 1.148,-0.964 c 0,0 27.93,-0.071 29.031,0 1.098,0.078 11.711,-1.836 24.153,-1.887 5.457,-0.02 11.426,-2.012 16.375,-2.402 19.484,-1.504 89.996,-11.895 109.234,-14.571 31.004,-4.316 105.664,-28.203 132.528,-32.246 36.457,-5.488 76.046,-1.152 105.48,4.785 54.023,10.907 101.31,18.907 158.98,26.278 5.67,0.722 45.53,6.261 46.84,6.425 9.88,1.25 9.49,5.754 9.49,5.754 0,0 -0.26,3.321 -6.6,3.098 -7.58,-0.293 -43.07,-2.285 -49.45,-2.629 -48.21,-2.578 -120.998,0.852 -139.494,4.981 -2.383,0.332 -3.633,0.664 -7.676,2.187 -14.707,5.82 -19.805,23.066 -15.527,53.254 2.753,19.375 27.871,141.383 27.871,141.383 v 0.234 c 0,0 -0.684,-0.137 -1.438,-1.433 -1.308,-2.317 -39.051,-69.504 -39.051,-69.504 l 10.879,57.336 -31.023,-43.477 2.871,29.375"
         style="fill:#254aa5;fill-opacity:1;fill-rule:nonzero;stroke:none"
         id="path26" /><path
         d="m 413.063,728.555 -28.36,39.812 c 0,0 -0.855,-5.469 -5.555,-12.586 -13.347,-20.234 -40.531,-47.078 -79.05,-75.703 -1.969,-1.453 -19.278,-14.336 -25.02,-19.109 -4.59,-3.828 -3.207,-8.508 -1.148,-12.414 2.031,-3.848 5.793,-10.086 7.492,-13.86 7.137,-15.847 6.137,-28.777 -6.344,-40.125 -4.68,-4.257 -10.976,-8.047 -20.398,-12.16 -2.61,-1.14 -8.332,-3.426 -13.508,-4.793 -8.211,-2.14 -24.352,-4.258 -34.215,-5.012 -8.187,-0.632 -26.836,-0.671 -35.926,-0.957 -8.39,-0.261 -43.359,-0.117 -52.332,0 -33.367,0.461 -42.5388,1.915 -42.5388,1.915 0,0 -7.8985,5.675 -13.2188,8.363 -6.6211,3.609 -13.9141,4.929 -19.543,4.297 -3.4882,-0.2 -8.457,-1.348 -11.5,-4.067 -1.3476,-1.199 -1.6211,-1.414 -2.8789,-3.101 -3.1992,-4.297 -5.3476,-6.614 -9.1992,-8.125 -2.25,-0.879 -14.17967,-3.801 -16.93749,-4.77 C 0.113281,565.195 0,564.719 0,564.719 l 2,-0.949 h 29.0391 c 0,0 9.9922,-2.051 16.9375,-2.051 3.7617,0 4.1054,0.008 7.5117,0 3.4219,-0.008 5.6484,-0.711 8.3086,-1.297 2.6719,-0.586 6.7226,-1.156 9.8203,-1.789 3.1016,-0.645 34.7028,-4.207 50.2658,-6.082 11.375,-1.367 28.086,-3.086 38.504,-5.266 12.324,-2.566 30.609,-6.34 41.113,-9.551 2.789,-0.847 28.18,-8.125 30.469,-8.839 23.312,-7.301 44.992,-13.114 79.64,-16.707 29.598,-2.825 53.739,-2.852 84.512,1.667 26.027,3.227 47.91,9.18 77.609,15.532 34.93,7.449 71.969,10.386 102.34,13.843 12.946,1.477 37.633,5.383 47.145,6.915 10.781,1.75 8.906,5.753 8.906,5.753 0,0 -0.793,3.118 -6.633,2.864 -1.453,-0.063 -21.902,-1.907 -27.175,-2.336 -11.29,-0.899 -28.301,-1.336 -43.52,-1.258 -16.383,0.098 -39.59,0.809 -62.09,2.867 -43.203,3.789 -62.433,5.781 -75.594,8.606 -4.082,0.988 -9.32,2.148 -9.261,5.515 0.039,2.442 1.953,4.504 6.468,8.899 7.5,7.293 6.344,12.761 6.653,34.629 0.429,30.195 3.832,67.16 3.32,70.117 -0.43,2.453 -3.238,3.437 -5.746,2.16 -3.473,-1.789 -10.641,-8.352 -10.641,-8.352 0,0 -0.543,1.239 0,2.852 1.426,4.355 7.168,14.031 9.477,18.152 2.121,3.782 2.613,5.266 2.601,6.692 -0.023,1.23 -1,2.636 -4.89,1.906 -2.34,-0.434 -3.219,-0.688 -5.75,-0.727 -2.949,-0.046 -6.25,1.536 -4.602,6.934 1.211,3.926 6.325,13.137 6.325,13.137"
         style="fill:#254aa5;fill-opacity:1;fill-rule:nonzero;stroke:none"
         id="path28" /><path
         d="m 178.512,583.105 c 0,0 -1.692,10.594 -1.449,21.747 0.238,11.132 1.449,21.476 1.449,21.476 0,0 2.648,-3.848 5.172,-6.68 14.867,-16.71 31.785,-23.222 60.925,-22.199 10.133,0.356 17.25,2.141 17.25,2.141 0,0 -6.289,-3.613 -13.507,-6.199 -31.77,-11.399 -69.84,-10.286 -69.84,-10.286"
         style="fill:#254aa5;fill-opacity:1;fill-rule:nonzero;stroke:none"
         id="path30" /><path
         d="M 118.129,41.9531 89.3906,109.055 H 63.7969 l 10.0742,-3.813 V 7.32422 L 63.7969,3.75 H 89.6758 L 80.4766,7.32422 V 90.1953 L 117.27,3.75 h 7.199 v 101.492 l 9.761,3.813 h -26.441 l 10.34,-3.813 V 41.9531"
         style="fill:#254aa5;fill-opacity:1;fill-rule:nonzero;stroke:none"
         id="path32" /><path
         d="M 118.129,41.9531 89.3906,109.055 H 63.7969 l 10.0742,-3.813 V 7.32422 L 63.7969,3.75 H 89.6758 L 80.4766,7.32422 V 90.1953 L 117.27,3.75 h 7.199 v 101.492 l 9.761,3.813 h -26.441 l 10.34,-3.813 z"
         style="fill:none;stroke:#254aa5;stroke-width:4.43;stroke-linecap:butt;stroke-linejoin:miter;stroke-miterlimit:3.864;stroke-dasharray:none;stroke-opacity:1"
         id="path34" /><path
         d="m 215.289,42.1875 h 8.633 l -8.34,39.6484 -0.293,-1.4257 v 19.8238 l 2.301,9.317 h 5.18 L 249.504,7.32422 258.988,3.75 h -35.636 l 9.468,3.57422 -8.328,32.23438 h -9.203 v 2.6289"
         style="fill:#254aa5;fill-opacity:1;fill-rule:nonzero;stroke:none"
         id="path36" /><path
         d="m 215.289,42.1875 h 8.633 l -8.34,39.6484 -0.293,-1.4257 v 19.8238 l 2.301,9.317 h 5.18 L 249.504,7.32422 258.988,3.75 h -35.636 l 9.468,3.57422 -8.328,32.23438 h -9.203 z"
         style="fill:none;stroke:#254aa5;stroke-width:4.43;stroke-linecap:butt;stroke-linejoin:miter;stroke-miterlimit:3.864;stroke-dasharray:none;stroke-opacity:1"
         id="path38" /><path
         d="m 215.289,80.4102 -8.617,-38.2227 h 8.617 v -2.6289 h -8.906 L 197.758,7.32422 207.242,3.75 h -25.859 l 9.754,3.57422 24.152,92.90978 V 80.4102"
         style="fill:#254aa5;fill-opacity:1;fill-rule:nonzero;stroke:none"
         id="path40" /><path
         d="m 215.289,80.4102 -8.617,-38.2227 h 8.617 v -2.6289 h -8.906 L 197.758,7.32422 207.242,3.75 h -25.859 l 9.754,3.57422 24.152,92.90978 z"
         style="fill:none;stroke:#254aa5;stroke-width:4.43;stroke-linecap:butt;stroke-linejoin:miter;stroke-miterlimit:3.864;stroke-dasharray:none;stroke-opacity:1"
         id="path42" /><path
         d="M 371.66,76.3477 V 109.055 H 313.891 V 76.3477 h 0.859 l 10.93,29.8433 h 8.922 V 7.32422 L 322.809,3.75 h 39.664 l -11.5,3.57422 V 106.191 h 9.187 l 10.93,-29.8433 h 0.57"
         style="fill:#254aa5;fill-opacity:1;fill-rule:nonzero;stroke:none"
         id="path44" /><path
         d="M 371.66,76.3477 V 109.055 H 313.891 V 76.3477 h 0.859 l 10.93,29.8433 h 8.922 V 7.32422 L 322.809,3.75 h 39.664 l -11.5,3.57422 V 106.191 h 9.187 l 10.93,-29.8433 z"
         style="fill:none;stroke:#254aa5;stroke-width:4.43;stroke-linecap:butt;stroke-linejoin:miter;stroke-miterlimit:3.864;stroke-dasharray:none;stroke-opacity:1"
         id="path46" /><path
         d="m 490.668,105.488 9.492,3.567 h -26.152 l 10.051,-3.567 c 0,0 0.113,-66.7497 0,-68.0661 -0.93,-11.875 -2.227,-17.3633 -5.157,-22.6953 -2.703,-4.89066 -6.898,-8.92582 -12.261,-8.64066 -5.192,0.26172 -7.09,4.05076 -7.84,6.43356 -0.403,1.25 -0.871,4.3828 -1.473,16.543 -0.105,2.0508 0,76.4255 0,76.4255 l 9.774,3.567 h -35.633 l 9.761,-3.567 c 0,0 -0.007,-61.8747 0,-63.3005 0.211,-29.3359 9.942,-34.47266 14.372,-37.29687 8.816,-3.95313 15.589,-3.40625 22.257,0.83984 3.325,2.11328 12.532,9.00393 12.809,35.98043 0.02,1.3164 0,63.7771 0,63.7771"
         style="fill:#254aa5;fill-opacity:1;fill-rule:nonzero;stroke:none"
         id="path48" /><path
         d="m 490.668,105.488 9.492,3.567 h -26.152 l 10.051,-3.567 c 0,0 0.113,-66.7497 0,-68.0661 -0.93,-11.875 -2.227,-17.3633 -5.157,-22.6953 -2.703,-4.89066 -6.898,-8.92582 -12.261,-8.64066 -5.192,0.26172 -7.09,4.05076 -7.84,6.43356 -0.403,1.25 -0.871,4.3828 -1.473,16.543 -0.105,2.0508 0,76.4255 0,76.4255 l 9.774,3.567 h -35.633 l 9.761,-3.567 c 0,0 -0.007,-61.8747 0,-63.3005 0.211,-29.3359 9.942,-34.47266 14.372,-37.29687 8.816,-3.95313 15.589,-3.40625 22.257,0.83984 3.325,2.11328 12.532,9.00393 12.809,35.98043 0.02,1.3164 0,63.7771 0,63.7771 z"
         style="fill:none;stroke:#254aa5;stroke-width:4.43;stroke-linecap:butt;stroke-linejoin:miter;stroke-miterlimit:3.864;stroke-dasharray:none;stroke-opacity:1"
         id="path50" /><path
         d="m 591.855,3.75 h 0.86 -0.86"
         style="fill:#254aa5;fill-opacity:1;fill-rule:nonzero;stroke:none"
         id="path52" /><path
         d="m 591.855,3.75 h 0.86 z"
         style="fill:none;stroke:#254aa5;stroke-width:4.43;stroke-linecap:butt;stroke-linejoin:miter;stroke-miterlimit:3.864;stroke-dasharray:none;stroke-opacity:1"
         id="path54" /><path
         d="m 591.855,105.242 c -2.441,0.742 -9.199,0.949 -9.199,0.949 V 62.2461 c 0,0 3.887,-0.4102 9.199,0.957 l -0.078,-4.5117 -2.5,0.4688 -6.621,0.2343 V 7.32422 L 591.855,3.75 h -35.062 l 9.766,3.57422 V 105.488 l -9.766,3.567 h 23.566 c 0,0 9.875,-0.082 11.704,-0.254 1.824,-0.16 15.554,-1.731 21.726,-10.7737 4.973,-7.2851 4.055,-17.6367 2.227,-22.1679 -2.578,-6.3399 -6.399,-9.043 -12.95,-12.168 -1.445,-0.7031 -10.351,-2.8711 -10.351,-2.8711 0,0 5.937,-1.3008 7.765,-1.4258 5.719,-0.4297 8.614,-2.7929 10.067,-6.457 0.637,-1.5898 1.555,-4.5469 2.004,-6.2109 0.476,-1.668 9.5,-39.40238 9.5,-39.40238 L 630.957,3.75 h -25.312 c 0,0 -8.887,47.6055 -9.766,50.6133 -1.074,3.7109 -4.102,4.3281 -4.102,4.3281 l 0.078,4.5117 0.579,0.2422 c 0,0 6.941,2.0625 8.046,10.2656 1.192,8.8477 0.829,15.6446 0,21.5039 -1.105,7.7932 -6.671,9.4332 -8.625,10.0272"
         style="fill:#254aa5;fill-opacity:1;fill-rule:nonzero;stroke:none"
         id="path56" /><path
         d="m 591.855,105.242 c -2.441,0.742 -9.199,0.949 -9.199,0.949 V 62.2461 c 0,0 3.887,-0.4102 9.199,0.957 l -0.078,-4.5117 -2.5,0.4688 -6.621,0.2343 V 7.32422 L 591.855,3.75 h -35.062 l 9.766,3.57422 V 105.488 l -9.766,3.567 h 23.566 c 0,0 9.875,-0.082 11.704,-0.254 1.824,-0.16 15.554,-1.731 21.726,-10.7737 4.973,-7.2851 4.055,-17.6367 2.227,-22.1679 -2.578,-6.3399 -6.399,-9.043 -12.95,-12.168 -1.445,-0.7031 -10.351,-2.8711 -10.351,-2.8711 0,0 5.937,-1.3008 7.765,-1.4258 5.719,-0.4297 8.614,-2.7929 10.067,-6.457 0.637,-1.5898 1.555,-4.5469 2.004,-6.2109 0.476,-1.668 9.5,-39.40238 9.5,-39.40238 L 630.957,3.75 h -25.312 c 0,0 -8.887,47.6055 -9.766,50.6133 -1.074,3.7109 -4.102,4.3281 -4.102,4.3281 l 0.078,4.5117 0.579,0.2422 c 0,0 6.941,2.0625 8.046,10.2656 1.192,8.8477 0.829,15.6446 0,21.5039 -1.105,7.7932 -6.671,9.4332 -8.625,10.0272 z"
         style="fill:none;stroke:#254aa5;stroke-width:4.43;stroke-linecap:butt;stroke-linejoin:miter;stroke-miterlimit:3.864;stroke-dasharray:none;stroke-opacity:1"
         id="path58" /><path
         d="m 712.59,42.1875 h 8.621 l -8.047,39.6484 -0.574,-1.6679 v 20.066 l 2.586,9.317 h 5.176 L 746.816,7.32422 756.582,3.75 h -35.937 l 9.765,3.57422 -8.332,32.23438 h -9.488 v 2.6289"
         style="fill:#254aa5;fill-opacity:1;fill-rule:nonzero;stroke:none"
         id="path60" /><path
         d="m 712.59,42.1875 h 8.621 l -8.047,39.6484 -0.574,-1.6679 v 20.066 l 2.586,9.317 h 5.176 L 746.816,7.32422 756.582,3.75 h -35.937 l 9.765,3.57422 -8.332,32.23438 h -9.488 z"
         style="fill:none;stroke:#254aa5;stroke-width:4.43;stroke-linecap:butt;stroke-linejoin:miter;stroke-miterlimit:3.864;stroke-dasharray:none;stroke-opacity:1"
         id="path62" /><path
         d="m 712.59,80.168 -8.047,-37.9805 h 8.047 v -2.6289 h -8.918 L 695.344,7.32422 705.117,3.75 h -26.172 l 9.493,3.57422 24.152,92.90978 V 80.168"
         style="fill:#254aa5;fill-opacity:1;fill-rule:nonzero;stroke:none"
         id="path64" /><path
         d="m 712.59,80.168 -8.047,-37.9805 h 8.047 v -2.6289 h -8.918 L 695.344,7.32422 705.117,3.75 h -26.172 l 9.493,3.57422 24.152,92.90978 z"
         style="fill:none;stroke:#254aa5;stroke-width:4.43;stroke-linecap:butt;stroke-linejoin:miter;stroke-miterlimit:3.864;stroke-dasharray:none;stroke-opacity:1"
         id="path66" /><path
         d="m 854.883,103.098 -5.176,7.39 V 76.3477 H 850 c 0,0 5.254,20.5546 9.102,26.1643 3.652,5.301 10.312,4.707 13.261,0.156 1.825,-2.8164 4.492,-8.9453 -0.508,-27.5117 C 869.109,64.9727 846.543,3.75 846.543,3.75 h 36.211 v 32.9492 h -0.274 l -7.187,-25.0664 h -22.129 c 0,0 28.406,53.2305 31.356,67.168 3.546,16.7969 -3.993,27.3712 -12.821,30.3402 -9.719,3.261 -16.816,-6.043 -16.816,-6.043"
         style="fill:#254aa5;fill-opacity:1;fill-rule:nonzero;stroke:none"
         id="path68" /><path
         d="m 854.883,103.098 -5.176,7.39 V 76.3477 H 850 c 0,0 5.254,20.5546 9.102,26.1643 3.652,5.301 10.312,4.707 13.261,0.156 1.825,-2.8164 4.492,-8.9453 -0.508,-27.5117 C 869.109,64.9727 846.543,3.75 846.543,3.75 h 36.211 v 32.9492 h -0.274 l -7.187,-25.0664 h -22.129 c 0,0 28.406,53.2305 31.356,67.168 3.546,16.7969 -3.993,27.3712 -12.821,30.3402 -9.719,3.261 -16.816,-6.043 -16.816,-6.043 z"
         style="fill:none;stroke:#254aa5;stroke-width:4.43;stroke-linecap:butt;stroke-linejoin:miter;stroke-miterlimit:3.864;stroke-dasharray:none;stroke-opacity:1"
         id="path70" /><path
         d="M 434.047,702.305 H 770.645 M 71,591.25 v 111.055 h 240.602"
         style="fill:none;stroke:#00a990;stroke-width:8.65;stroke-linecap:butt;stroke-linejoin:miter;stroke-miterlimit:3.864;stroke-dasharray:none;stroke-opacity:1"
         id="path72" /><path
         d="m 71.0898,133.672 0.0079,399.531"
         style="fill:none;stroke:#254aa5;stroke-width:8.65;stroke-linecap:butt;stroke-linejoin:miter;stroke-miterlimit:3.864;stroke-dasharray:none;stroke-opacity:1"
         id="path74" /><path
         d="m 670.051,294.148 c 0,0 1.023,-0.894 1.746,-1.675 10.117,-10.942 43.379,-51.821 43.379,-51.821 0,0 29.426,-13.308 80.215,-11.941 24.316,0.644 51.816,7.43 64.675,9.785 5,0.93 9.7,1.777 17.532,2.637 27.246,2.988 39.648,2.988 60.363,-10.266 5.105,-3.269 57.93,-35.301 61.492,-37.508 19.457,-12.004 47.737,-9.343 58.937,-5.742 22.61,7.305 40.07,13.184 69.87,8.856 3.76,-0.555 14.36,-2.871 14.36,-2.871 0,0 -29.12,21.339 -42.54,28.898 -18.04,10.145 -36.97,14.551 -54.62,11.23 -3.51,-0.671 -0.28,0.243 -0.28,0.243 0,0 -38.66,-9.305 -58.93,-10.274 -8.926,-0.429 -32.773,-2.558 -58.652,21.477 -12.137,12.207 -21.297,20.461 -26.438,23.664 -11.336,7.098 -26.355,8.883 -39.656,9.058 -4.434,0.063 -38.848,-1.062 -66.984,-1.902 -27.625,-0.828 -78.856,2.606 -104.344,11.453 -5.41,1.875 -20.125,6.699 -20.125,6.699"
         style="fill:#00a990;fill-opacity:1;fill-rule:nonzero;stroke:none"
         id="path76" /><path
         d="m 1145.51,135.098 -1.15,28.172 c 0,0 -17.5,8.898 -41.11,9.32 -15.59,0.281 -32.01,-4.934 -58.37,-10.754 -11.49,-2.539 -32.4,-3.75 -46.267,5.262 -11.179,7.265 -20.234,14.062 -28.183,21.972 -3.758,3.762 -7.11,7.91 -13.203,13.852 -13.379,13.023 -18.633,15.933 -31.055,16.961 -19.727,1.609 -37.461,-2.254 -57.774,-4.074 -27.734,-2.469 -76.386,-8.036 -140.578,10.754 -3.699,1.082 -3.445,1.679 -3.445,1.679 0,0 7.727,-8 10.637,-11.008 22.554,-23.269 67,-76.648 67,-76.648 0,0 2.922,1.457 9.062,4.394 52.012,24.883 99.473,32.137 108.477,33.583 25.683,4.093 46.015,4.093 63.242,-7.645 4.941,-3.352 4.863,-3.105 10.352,-6.691 19.155,-12.461 50.165,-32.477 66.115,-37.723 17.08,-5.637 29.02,-5.93 43.68,-2.395 17.88,4.297 42.57,10.989 42.57,10.989"
         style="fill:#00a990;fill-opacity:1;fill-rule:nonzero;stroke:none"
         id="path78" /><path
         d="M 920.703,702.285 H 1146.35 V 135"
         style="fill:none;stroke:#254aa5;stroke-width:8.65;stroke-linecap:butt;stroke-linejoin:miter;stroke-miterlimit:3.864;stroke-dasharray:none;stroke-opacity:1"
         id="path80" /><path
         d="m 444.973,433.613 -9.203,-23.64 h -30.473 l 24.433,-15.285 -9.472,-24.836 24.715,15.531 25.007,-15.531 -9.781,24.601 24.723,15.52 h -31.039 z m -29.325,-90.273 -8.91,-23.399 h -30.461 l 24.703,-15.293 -9.757,-24.824 24.718,15.274 25,-15.274 -9.769,24.602 25.012,15.515 h -31.051 z m 427.457,0 -8.925,-23.652 h -30.742 l 24.707,-15.262 -9.473,-24.844 24.707,15.516 24.465,-15.516 -9.504,24.598 24.726,15.508 h -30.761 z m -28.164,90.273 -9.199,-23.64 h -30.195 l 24.426,-15.285 -9.758,-24.836 25,15.531 24.726,-15.531 -10.078,24.601 25.02,15.52 h -30.774 z m -73.906,68.313 -8.894,-23.41 h -30.469 l 24.441,-15.528 -9.504,-24.609 24.731,15.059 24.715,-15.059 -9.766,24.609 24.727,15.528 h -30.782 z m -111.25,19.812 -8.906,-23.64 h -30.176 l 24.434,-15.051 -9.778,-25.078 24.426,15.285 25.02,-15.285 -9.754,24.836 25,15.293 h -31.067 z m -110.937,-19.355 -9.2,-23.645 h -30.46 l 24.429,-15.269 -9.484,-24.836 24.715,15.527 24.722,-15.527 -9.476,24.59 24.715,15.515 h -30.758 z"
         style="fill:none;stroke:#254aa5;stroke-width:2.1;stroke-linecap:butt;stroke-linejoin:miter;stroke-miterlimit:3.864;stroke-dasharray:none;stroke-opacity:1"
         id="path82" /></g></g></svg>
